<?xml version="1.0"?>
<svg xmlns="http://www.w3.org/2000/svg" xmlns:xlink="http://www.w3.org/1999/xlink" version="1.1" id="Capa_1" x="0px" y="0px" viewBox="0 0 280 280" style="enable-background:new 0 0 280 280;" xml:space="preserve" width="512px" height="512px" class=""><g><path d="M275.456,0H4.544C2.034,0,0,2.035,0,4.544v270.911C0,277.965,2.034,280,4.544,280h270.911c2.509,0,4.544-2.035,4.544-4.544  V4.544C280,2.035,277.965,0,275.456,0z M212.529,191.316l-21.213,21.213L140,161.213l-51.316,51.316l-21.213-21.213L118.787,140  L67.471,88.684l21.213-21.213L140,118.787l51.316-51.316l21.213,21.213L161.213,140L212.529,191.316z" data-original="#000000" class="active-path" data-old_color="#000000" fill="#FFC100"/></g> </svg>
